<?xml version="1.0" standalone="no"?>
<!DOCTYPE svg PUBLIC "-//W3C//DTD SVG 20010904//EN"
 "http://www.w3.org/TR/2001/REC-SVG-20010904/DTD/svg10.dtd">
<svg version="1.0" xmlns="http://www.w3.org/2000/svg"
 width="296.000000pt" height="296.000000pt" viewBox="0 0 296.000000 296.000000"
 preserveAspectRatio="xMidYMid meet">
<metadata>
Created by potrace 1.14, written by Peter Selinger 2001-2017
</metadata>
<g transform="translate(0.000000,296.000000) scale(0.100000,-0.100000)"
fill="#000000" stroke="none">
<path d="M500 2820 c-20 -20 -20 -33 -20 -1257 1 -958 3 -1242 13 -1254 21
-26 264 -189 284 -189 10 0 67 34 127 75 l109 75 66 -47 c36 -26 85 -60 108
-76 51 -36 70 -33 156 27 34 24 79 55 100 69 l38 26 97 -68 c54 -38 107 -71
118 -75 29 -9 54 3 161 78 l92 65 48 -33 c26 -18 75 -52 107 -75 33 -22 68
-41 79 -41 20 0 262 162 284 189 10 12 12 296 13 1254 0 1224 0 1237 -20 1257
-20 20 -33 20 -980 20 -947 0 -960 0 -980 -20z m1856 -1265 c0 -638 -1 -1166
-4 -1173 -4 -11 -157 -122 -168 -122 -3 0 -54 34 -114 75 -65 44 -117 73 -128
70 -10 -2 -57 -30 -105 -63 -132 -93 -110 -93 -237 -7 -82 56 -117 74 -132 69
-11 -3 -65 -37 -119 -75 -54 -38 -101 -69 -105 -69 -4 0 -44 27 -90 60 -110
78 -133 90 -162 79 -13 -5 -65 -38 -116 -74 -52 -36 -96 -65 -99 -65 -3 0 -43
26 -89 58 l-84 57 2 1170 c0 644 2 1170 3 1171 0 1 394 1 874 0 l872 -1 1
-1160z"/>
<path d="M1205 2556 c-10 -7 -32 -57 -49 -112 l-32 -99 -118 -5 c-102 -4 -120
-8 -132 -24 -19 -26 -18 -49 4 -76 15 -18 29 -23 69 -23 l51 0 33 -86 c106
-280 135 -346 155 -356 13 -6 128 -10 304 -10 275 0 283 1 299 22 10 11 53
114 96 227 l78 206 50 -2 c41 0 54 3 69 22 23 28 23 52 1 79 -16 19 -30 21
-131 23 l-114 3 -31 97 c-18 53 -37 102 -44 109 -19 19 -65 14 -84 -10 -20
-24 -18 -45 12 -133 10 -31 19 -60 19 -63 0 -3 -104 -5 -231 -5 -216 0 -231 1
-224 18 14 32 37 117 40 144 5 45 -54 81 -90 54z m622 -350 c-2 -6 -30 -80
-62 -163 l-58 -153 -228 0 -228 0 -19 53 c-11 28 -32 84 -47 122 -15 39 -33
88 -40 111 l-13 41 349 0 c244 0 349 -4 346 -11z"/>
<path d="M872 1586 c-35 -19 -42 -57 -16 -91 14 -19 27 -20 426 -21 l412 -1
24 24 c17 17 21 30 17 46 -17 53 -4 52 -441 52 -230 0 -412 -4 -422 -9z"/>
<path d="M1880 1586 c-42 -19 -38 -87 8 -104 41 -16 198 -10 216 8 27 28 24
75 -6 92 -27 14 -187 18 -218 4z"/>
<path d="M903 1262 c-57 -6 -81 -64 -43 -102 19 -19 33 -20 428 -20 423 1 429
1 445 43 10 28 -10 66 -39 73 -26 7 -729 12 -791 6z"/>
<path d="M1930 1262 c-25 -2 -53 -11 -62 -19 -24 -21 -23 -58 2 -83 17 -17 33
-20 118 -20 82 0 102 3 115 18 30 34 21 88 -16 98 -30 7 -101 10 -157 6z"/>
<path d="M860 910 c-25 -25 -25 -51 -2 -80 17 -22 20 -22 317 -21 565 0 523
-1 545 21 23 23 22 51 -5 80 -18 20 -28 20 -427 20 -395 0 -409 -1 -428 -20z"/>
<path d="M1870 910 c-25 -25 -26 -62 -1 -84 14 -13 39 -17 107 -18 105 -1 130
5 140 35 10 28 6 48 -13 70 -13 14 -33 17 -115 17 -85 0 -101 -3 -118 -20z"/>
</g>
</svg>
